<?xml version="1.0" encoding="iso-8859-1"?>
<!-- Generator: Adobe Illustrator 19.0.0, SVG Export Plug-In . SVG Version: 6.00 Build 0)  -->
<svg version="1.1" id="Capa_1" xmlns="http://www.w3.org/2000/svg" xmlns:xlink="http://www.w3.org/1999/xlink" x="0px" y="0px"
	 viewBox="0 0 436.907 436.907" style="enable-background:new 0 0 436.907 436.907;" xml:space="preserve">
<circle style="fill:#334D5C;" cx="218.453" cy="218.453" r="218.453"/>
<path style="opacity:0.1;enable-background:new    ;" d="M424.433,291.253l-77.971-77.971l-16.418,0.341l-0.956,0.034
	l-83.558-83.558v0.068c-3.413-4.199-7.714-7.544-12.834-9.626c-6.212-2.492-12.834-2.799-19.285-1.331l-23.313-23.313
	c-1.946-2.116-3.379-3.174-3.584-3.311c-1.229-0.887-2.901-0.614-3.789,0.58c-0.853,1.195-0.614,2.901,0.615,3.755l4.062,4.096
	c3.379,4.028,7.987,11.332,10.308,22.801c-9.83-5.461-20.89-6.793-30.788-2.594c-18.671,7.987-26.146,32.563-17.442,55.774
	l-38.775,10.206l-14.575,3.857l3.652,4.779l0.205,20.002l-9.523,4.164l94.549,124.86l85.724,85.697
	C342.394,412.958,400.127,360.019,424.433,291.253z"/>
<path style="fill:#F6C358;" d="M200.525,304.552l-15.51,40.302L328.33,303.62c11.826-3.121,18.883-15.237,15.762-27.063
	l-86.918-106.385c-7.683-8.764-19.264-14.717-28.647-14.03l-6.813,1.798l-110.997,29.271l-14.599,3.853l89.809,117.341
	L200.525,304.552z"/>
<path style="fill:#E1E6E9;" d="M319.023,273.282L190.792,307.12l23.986,22.283l111.051-30.329
	c7.122-1.879,11.372-9.177,9.493-16.299v0C333.443,275.652,326.145,271.402,319.023,273.282z"/>
<polygon style="fill:#F6C358;" points="99.99,215.852 90.453,219.992 185.015,344.854 193.01,336.522 100.081,224.606 "/>
<polygon style="fill:#E1E6E9;" points="99.783,195.854 100.081,224.606 189.708,337.988 214.778,329.403 "/>
<rect x="265.779" y="214.771" transform="matrix(0.2546 0.967 -0.967 0.2546 466.2472 -56.3974)" style="fill:#31978C;" width="7.857" height="118.961"/>
<rect x="263.805" y="207.18" transform="matrix(0.2546 0.967 -0.967 0.2546 457.4353 -60.1453)" style="fill:#3EA69B;" width="7.857" height="118.961"/>
<rect x="261.783" y="199.597" transform="matrix(0.2546 0.967 -0.967 0.2546 448.5951 -63.8427)" style="fill:#44C4A1;" width="7.857" height="118.961"/>
<rect x="194.606" y="278.888" transform="matrix(0.2546 0.967 -0.967 0.2546 427.3348 11.2183)" style="fill:#D5D6DB;" width="23.569" height="7.857"/>
<rect x="201.82" y="284.433" transform="matrix(0.2546 0.967 -0.967 0.2546 433.7867 13.9364)" style="fill:#E1E6E9;" width="12.066" height="7.857"/>
<rect x="317.244" y="246.608" transform="matrix(0.2546 0.967 -0.967 0.2546 487.5311 -131.4393)" style="fill:#D5D6DB;" width="23.569" height="7.857"/>
<rect x="324.448" y="252.153" transform="matrix(0.2546 0.967 -0.967 0.2546 493.9753 -128.7113)" style="fill:#E1E6E9;" width="12.066" height="7.857"/>
<path style="fill:#DC8744;" d="M181.361,289.104c0.356,1.351,0.416,2.7,0.301,4.016l23.934,2.079l-6.001-22.791l-19.858,13.201
	C180.438,286.662,181.021,287.813,181.361,289.104z"/>
<path style="fill:#3A556A;" d="M179.737,285.609l-9.772,6.496l11.697,1.016C181.662,293.12,182.268,288.708,179.737,285.609z"/>
<rect x="241.142" y="190.975" transform="matrix(-0.2891 -0.9573 0.9573 -0.2891 92.195 537.0554)" style="fill:#CE412D;" width="8.755" height="86.637"/>
<rect x="243.667" y="199.355" transform="matrix(-0.2891 -0.9573 0.9573 -0.2891 87.4278 550.2757)" style="fill:#D15241;" width="8.755" height="86.637"/>
<rect x="246.219" y="207.728" transform="matrix(-0.2891 -0.9573 0.9573 -0.2891 82.7019 563.5109)" style="fill:#E56353;" width="8.755" height="86.637"/>
<rect x="281.766" y="222.911" transform="matrix(-0.2891 -0.9573 0.9573 -0.2891 161.3656 576.8905)" style="fill:#D5D6DB;" width="26.262" height="11.23"/>
<rect x="286.359" y="216.79" transform="matrix(-0.2891 -0.9573 0.9573 -0.2891 164.8832 567.2604)" style="fill:#E1E6E9;" width="13.442" height="11.23"/>
<rect x="188.068" y="251.198" transform="matrix(-0.2891 -0.9573 0.9573 -0.2891 13.5053 523.655)" style="fill:#D5D6DB;" width="26.262" height="11.23"/>
<rect x="192.627" y="245.077" transform="matrix(-0.2891 -0.9573 0.9573 -0.2891 16.9789 513.9923)" style="fill:#E1E6E9;" width="13.442" height="11.23"/>
<path style="fill:#DC8744;" d="M330.326,218.166c-0.45-1.49-0.484-3.016-0.274-4.527l-33.562,0.701l7.591,25.14l28.398-17.548
	C331.533,220.824,330.756,219.59,330.326,218.166z"/>
<path style="fill:#3A556A;" d="M332.479,221.932l13.975-8.635l-16.402,0.342C330.052,213.639,329.037,218.733,332.479,221.932z"/>
<path style="fill:#3EA69B;" d="M201.48,150.881c1.367-0.014,2.53-1.058,2.658-2.45c3.735-39.844-16.755-55.225-17.627-55.86
	c-1.21-0.879-2.899-0.611-3.775,0.596c-0.877,1.205-0.611,2.891,0.591,3.77c0.8,0.593,18.857,14.435,15.434,50.991
	c-0.14,1.485,0.95,2.803,2.437,2.941C201.292,150.878,201.387,150.882,201.48,150.881z"/>
<path style="fill:#E56353;" d="M166.927,121.233c10.6-4.524,22.577-2.713,32.924,3.761c10.21-6.687,22.147-8.746,32.839-4.443
	c19.489,7.843,27.422,33.748,17.719,57.86c-9.184,22.82-30.868,35.827-49.688,30.509c-18.705,5.707-40.654-6.847-50.309-29.472
	C140.211,155.543,147.605,129.478,166.927,121.233z"/>
<g>
	<path style="fill:#EBF0F3;" d="M164.867,185.448c0.372-0.004,0.751-0.084,1.114-0.254c1.353-0.632,1.935-2.239,1.303-3.592
		c-17.162-36.741,6.847-50.715,7.091-50.852c1.301-0.729,1.767-2.378,1.039-3.679c-0.729-1.301-2.375-1.765-3.679-1.039
		c-0.289,0.161-28.611,16.619-9.346,57.858C162.85,184.881,163.838,185.459,164.867,185.448z"/>
	<ellipse style="fill:#EBF0F3;" cx="167.8" cy="191.248" rx="3.301" ry="3.301"/>
</g>
<g>
</g>
<g>
</g>
<g>
</g>
<g>
</g>
<g>
</g>
<g>
</g>
<g>
</g>
<g>
</g>
<g>
</g>
<g>
</g>
<g>
</g>
<g>
</g>
<g>
</g>
<g>
</g>
<g>
</g>
</svg>
